<svg xmlns="http://www.w3.org/2000/svg" viewBox="0 0 180 180">
  <!-- background -->
  <rect width="180" height="180" rx="32" fill="#000"/>

  <!-- flask outline -->
  <path
    d="M75 20
       C75 18 78 16 80 16
       H100
       C102 16 105 18 105 20
       V44
       C105 54 114 64 122 74
       C138 92 148 110 148 136
       C148 162 124 166 90 166
       C56 166 32 162 32 136
       C32 110 42 92 58 74
       C66 64 75 54 75 44
       Z"
    fill="none"
    stroke="#fff"
    stroke-width="10"
    stroke-linecap="round"
    stroke-linejoin="round"
    opacity="0.97"
  />

  <!-- neck lip -->
  <path
    d="M80 20 H100"
    fill="none"
    stroke="#fff"
    stroke-width="10"
    stroke-linecap="round"
    opacity="0.97"
  />

  <!-- heart -->
  <g transform="translate(0, 34)">
    <path
      d="M90 120
         C90 120 50 102 50 78
         C50 60 66 50 78 50
         C82 50 86 58 90 72
         C94 58 98 50 102 50
         C114 50 130 60 130 78
         C130 102 90 120 90 120
         Z"
      fill="#ff2db7"
    />
  </g>
</svg>
